<svg height="512pt" viewBox="0 0 512 512" width="512pt" xmlns="http://www.w3.org/2000/svg"><path d="m512 256c0 141.386719-114.613281 256-256 256s-256-114.613281-256-256 114.613281-256 256-256 256 114.613281 256 256zm0 0" fill="#6e79e4"/><path d="m379.695312 480.167969c78.882813-43.621094 132.304688-127.648438 132.304688-224.167969 0-7.304688-.324219-14.535156-.921875-21.683594l-148.3125-148.3125-8.898437 23.546875-52.890626-52.894531-191.269531 134.644531 41.699219 41.703125-8.660156 10.210938zm0 0" fill="#2038da"/><path d="m88.621094 396.707031-5.769532 47.839844c17.863282 16.414063 38.066407 30.3125 60.050782 41.160156v-137.878906l-7.304688 1.019531c-24.703125 3.445313-43.992187 23.09375-46.976562 47.859375zm0 0" fill="#f9f9f9"/><path d="m370.964844 348.089844v136.6875c21.261718-10.707032 40.828125-24.285156 58.183594-40.230469l-5.769532-47.839844c-2.984375-24.765625-22.273437-44.414062-46.976562-47.859375zm0 0" fill="#f4f4f4"/><path d="m289.59375 315.214844v-24.765625h-67.1875v24.765625c0 12.335937-9.09375 22.789062-21.316406 24.496094l-58.1875 8.117187v137.878906c34.105468 16.824219 72.492187 26.292969 113.097656 26.292969 41.347656 0 80.394531-9.816406 114.964844-27.222656v-136.6875l-60.058594-8.378906c-12.21875-1.707032-21.3125-12.160157-21.3125-24.496094zm0 0" fill="#ff9210"/><path d="m310.90625 339.710938c-12.21875-1.707032-21.3125-12.160157-21.3125-24.496094v-24.765625h-34.046875v221.542969c.152344 0 .300781.007812.453125.007812 41.34375 0 80.394531-9.816406 114.964844-27.222656v-136.6875zm0 0" fill="#e26007"/><path d="m259.359375 309.859375h-6.71875c-55.042969 0-99.660156-44.621094-99.660156-99.660156v-48.152344c0-55.039063 44.617187-99.660156 99.660156-99.660156h6.71875c55.039063 0 99.660156 44.621093 99.660156 99.660156v48.152344c0 55.039062-44.617187 99.660156-99.660156 99.660156zm0 0" fill="#fef5e0"/><path d="m259.359375 62.386719h-3.8125v247.472656h3.8125c55.042969 0 99.660156-44.621094 99.660156-99.660156v-48.152344c0-55.039063-44.617187-99.660156-99.660156-99.660156zm0 0" fill="#fedfb1"/><path d="m256 500.597656 68.25-159.027344-13.34375-1.859374c-9.453125-1.320313-17.015625-7.882813-19.964844-16.496094l-71.136718 3.023437c-3.539063 7.097657-10.398438 12.3125-18.714844 13.472657l-11.8125 1.648437zm0 0" fill="#f9f9f9"/><path d="m324.25 341.570312-13.34375-1.859374c-9.453125-1.320313-17.015625-7.882813-19.964844-16.496094l-35.394531 1.503906v174.800781l.453125 1.078125zm0 0" fill="#f4f4f4"/><path d="m251.148438 344.761719-30.878907 10.921875c-9.703125 3.433594-19.886719-3.765625-19.886719-14.058594v-26.203125c0-10.292969 10.183594-17.492187 19.886719-14.058594l30.878907 10.921875zm0 0" fill="#fc1f80"/><path d="m260.851562 312.285156 30.878907-10.921875c9.703125-3.433593 19.886719 3.765625 19.886719 14.058594v26.203125c0 10.292969-10.183594 17.492188-19.886719 14.058594l-30.878907-10.921875zm0 0" fill="#af1154"/><path d="m259.113281 349.613281h-6.230469c-9.925781 0-17.972656-8.046875-17.972656-17.976562v-6.230469c0-9.925781 8.046875-17.972656 17.972656-17.972656h6.230469c9.929688 0 17.976563 8.046875 17.976563 17.972656v6.230469c0 9.929687-8.046875 17.976562-17.976563 17.976562zm0 0" fill="#af1154"/><path d="m259.113281 307.433594h-3.566406v42.179687h3.566406c9.929688 0 17.976563-8.046875 17.976563-17.972656v-6.234375c0-9.925781-8.046875-17.972656-17.976563-17.972656zm0 0" fill="#bf2d10"/><path d="m379.898438 128.769531c0-34.210937-27.734376-61.945312-61.945313-61.945312h-12.386719c0-7.492188-6.078125-13.566407-13.570312-13.566407h-59.285156c-67.933594 0-123.003907 55.070313-123.003907 123v15.042969c10.96875 1.4375 22.050781 1.570313 33.035157.71875v51.199219h12.390624v-52.570312c69.933594-9.988282 132.734376-55.976563 132.734376-55.976563 15.191406 38.164063 47.605468 54.214844 69.613281 60.878906v47.667969h12.386719v-44.5625c6.183593 1.226562 10.03125 1.496094 10.03125 1.496094zm0 0" fill="#ffd93b"/><path d="m317.953125 66.824219h-12.386719c0-7.492188-6.074218-13.566407-13.570312-13.566407h-36.449219v101.460938c19.914063-10.96875 32.320313-20.050781 32.320313-20.050781 15.191406 38.164062 47.605468 54.21875 69.613281 60.882812v47.664063h12.386719v-44.558594c6.183593 1.226562 10.03125 1.496094 10.03125 1.496094v-71.382813c-.003907-34.210937-27.734376-61.945312-61.945313-61.945312zm0 0" fill="#fdba12"/></svg>